<svg width="63" height="63" xmlns="http://www.w3.org/2000/svg" xmlns:xlink="http://www.w3.org/1999/xlink" xml:space="preserve" overflow="hidden"><g transform="translate(-1186 -78)"><g><g><g><g><path d="M1234.14 117.492 1234.14 111.607C1234.14 110.363 1233.13 109.355 1231.89 109.354L1228.98 109.354 1228.98 106.125 1221.66 106.125 1221.66 104.188 1223.56 104.188C1225.48 104.186 1227.04 102.629 1227.04 100.707L1227.04 93.4596C1227.04 91.5381 1225.48 89.981 1223.56 89.9792L1218.64 89.9792 1218.64 87.95C1220.02 87.5933 1220.85 86.1842 1220.5 84.8028 1220.14 83.4214 1218.73 82.5907 1217.35 82.9473 1215.97 83.304 1215.14 84.7131 1215.49 86.0945 1215.73 87.0045 1216.44 87.715 1217.35 87.95L1217.35 89.9792 1212.43 89.9792C1210.51 89.9813 1208.96 91.5384 1208.95 93.4596L1208.95 100.707C1208.96 102.628 1210.51 104.185 1212.43 104.188L1214.55 104.188 1214.55 106.125 1207.02 106.125 1207.02 109.995 1202.92 109.995C1202.39 109.995 1201.96 109.565 1201.96 109.035L1201.96 103.15C1203.89 102.792 1205.16 100.938 1204.8 99.0093 1204.68 98.374 1204.4 97.783 1203.97 97.2997L1203 98.1586C1203.83 99.0922 1203.75 100.521 1202.81 101.35 1201.88 102.179 1200.45 102.094 1199.62 101.16 1198.87 100.309 1198.86 99.0292 1199.61 98.1722L1198.64 97.3216C1197.35 98.7998 1197.5 101.044 1198.98 102.333 1199.46 102.752 1200.04 103.034 1200.67 103.15L1200.67 109.035C1200.67 110.279 1201.68 111.286 1202.92 111.287L1207.02 111.287 1207.02 124.87C1203.99 125.05 1201.69 127.648 1201.87 130.673 1202.04 133.57 1204.44 135.832 1207.34 135.833L1228.65 135.833C1231.68 135.832 1234.14 133.374 1234.14 130.344 1234.13 127.442 1231.87 125.043 1228.98 124.87L1228.98 110.646 1231.89 110.646C1232.42 110.647 1232.85 111.076 1232.85 111.607L1232.85 117.492C1230.92 117.849 1229.65 119.703 1230.01 121.632 1230.12 122.267 1230.41 122.858 1230.84 123.341L1231.81 122.482C1230.98 121.548 1231.06 120.12 1232 119.291 1232.93 118.462 1234.36 118.547 1235.19 119.481 1235.94 120.332 1235.95 121.612 1235.2 122.469L1236.17 123.319C1237.46 121.841 1237.31 119.597 1235.83 118.307 1235.35 117.889 1234.77 117.608 1234.14 117.492ZM1216.7 85.4583C1216.7 84.745 1217.28 84.1667 1218 84.1667 1218.71 84.1667 1219.29 84.745 1219.29 85.4583 1219.29 86.1717 1218.71 86.75 1218 86.75 1217.28 86.7504 1216.7 86.1724 1216.7 85.459 1216.7 85.4588 1216.7 85.4585 1216.7 85.4583ZM1208.31 117.149 1213.59 117.149 1215.69 112.677 1217.67 120.251 1220.34 114.762 1222.02 118.747 1223.32 117.415C1223.49 117.257 1223.71 117.164 1223.95 117.151L1227.68 117.151 1227.68 124.854 1208.31 124.854ZM1212.43 102.896C1211.23 102.894 1210.25 101.915 1210.25 100.707L1210.25 93.4596C1210.25 92.2516 1211.23 91.2726 1212.43 91.2708L1223.56 91.2708C1224.77 91.2726 1225.74 92.2515 1225.75 93.4596L1225.75 100.707C1225.74 101.915 1224.77 102.894 1223.56 102.896L1212.43 102.896ZM1215.84 104.188 1220.36 104.188 1220.36 106.125 1215.84 106.125ZM1214.55 107.417 1227.68 107.417 1227.68 115.858 1223.95 115.858C1223.39 115.869 1222.86 116.081 1222.45 116.454L1220.42 111.633 1218.04 116.541 1216.04 108.902 1212.77 115.858 1208.31 115.858 1208.31 107.417ZM1232.85 130.344C1232.85 132.661 1230.97 134.539 1228.65 134.542L1207.34 134.542C1205.02 134.542 1203.14 132.662 1203.14 130.344 1203.14 128.025 1205.02 126.146 1207.34 126.146L1228.65 126.146C1230.97 126.149 1232.85 128.027 1232.85 130.344Z" stroke="#FF0000" stroke-width="0.645833" stroke-linecap="butt" stroke-linejoin="miter" stroke-miterlimit="4" stroke-opacity="1" fill="#FF0000" fill-rule="nonzero" fill-opacity="1"/><path d="M1224 97.0833C1224 95.5496 1222.76 94.3063 1221.22 94.3063 1219.69 94.3063 1218.45 95.5496 1218.45 97.0833 1218.45 98.6171 1219.69 99.8604 1221.22 99.8604 1222.76 99.8604 1224 98.6171 1224 97.0833ZM1221.22 99.0208C1220.15 99.0208 1219.29 98.1534 1219.29 97.0833 1219.29 96.0133 1220.15 95.1458 1221.22 95.1458 1222.29 95.1458 1223.16 96.0133 1223.16 97.0833 1223.16 98.1534 1222.29 99.0208 1221.22 99.0208Z" stroke="#FF0000" stroke-width="0.645833" stroke-linecap="butt" stroke-linejoin="miter" stroke-miterlimit="4" stroke-opacity="1" fill="#FF0000" fill-rule="nonzero" fill-opacity="1"/><path d="M1222.19 97.0833C1222.19 97.6184 1221.76 98.0521 1221.22 98.0521 1220.69 98.0521 1220.26 97.6184 1220.26 97.0833 1220.26 96.5483 1220.69 96.1146 1221.22 96.1146 1221.76 96.1146 1222.19 96.5483 1222.19 97.0833Z" stroke="#FF0000" stroke-width="0.645833" stroke-linecap="butt" stroke-linejoin="miter" stroke-miterlimit="4" stroke-opacity="1" fill="#FF0000" fill-rule="nonzero" fill-opacity="1"/><path d="M1214.77 94.3063C1213.23 94.3063 1211.99 95.5496 1211.99 97.0833 1211.99 98.6171 1213.23 99.8604 1214.77 99.8604 1216.3 99.8604 1217.54 98.6171 1217.54 97.0833 1217.54 95.5496 1216.3 94.3063 1214.77 94.3063ZM1214.77 99.0208C1213.7 99.0208 1212.83 98.1534 1212.83 97.0833 1212.83 96.0133 1213.7 95.1458 1214.77 95.1458 1215.84 95.1458 1216.7 96.0133 1216.7 97.0833 1216.7 98.1534 1215.84 99.0208 1214.77 99.0208Z" stroke="#FF0000" stroke-width="0.645833" stroke-linecap="butt" stroke-linejoin="miter" stroke-miterlimit="4" stroke-opacity="1" fill="#FF0000" fill-rule="nonzero" fill-opacity="1"/><path d="M1215.74 97.0833C1215.74 97.6184 1215.3 98.0521 1214.77 98.0521 1214.23 98.0521 1213.8 97.6184 1213.8 97.0833 1213.8 96.5483 1214.23 96.1146 1214.77 96.1146 1215.3 96.1146 1215.74 96.5483 1215.74 97.0833Z" stroke="#FF0000" stroke-width="0.645833" stroke-linecap="butt" stroke-linejoin="miter" stroke-miterlimit="4" stroke-opacity="1" fill="#FF0000" fill-rule="nonzero" fill-opacity="1"/><path d="M1219.29 130.344C1219.29 131.057 1218.71 131.635 1218 131.635 1217.28 131.635 1216.7 131.057 1216.7 130.344 1216.7 129.63 1217.28 129.052 1218 129.052 1218.71 129.052 1219.29 129.63 1219.29 130.344Z" stroke="#FF0000" stroke-width="0.645833" stroke-linecap="butt" stroke-linejoin="miter" stroke-miterlimit="4" stroke-opacity="1" fill="#FF0000" fill-rule="nonzero" fill-opacity="1"/><path d="M1209.92 130.344C1209.92 131.057 1209.34 131.635 1208.63 131.635 1207.92 131.635 1207.34 131.057 1207.34 130.344 1207.34 129.63 1207.92 129.052 1208.63 129.052 1209.34 129.052 1209.92 129.63 1209.92 130.344Z" stroke="#FF0000" stroke-width="0.645833" stroke-linecap="butt" stroke-linejoin="miter" stroke-miterlimit="4" stroke-opacity="1" fill="#FF0000" fill-rule="nonzero" fill-opacity="1"/><path d="M1228.65 130.344C1228.65 131.057 1228.07 131.635 1227.36 131.635 1226.65 131.635 1226.07 131.057 1226.07 130.344 1226.07 129.63 1226.65 129.052 1227.36 129.052 1228.07 129.052 1228.65 129.63 1228.65 130.344Z" stroke="#FF0000" stroke-width="0.645833" stroke-linecap="butt" stroke-linejoin="miter" stroke-miterlimit="4" stroke-opacity="1" fill="#FF0000" fill-rule="nonzero" fill-opacity="1"/></g></g></g></g></g></svg>