<svg width="64" height="62" xmlns="http://www.w3.org/2000/svg" xmlns:xlink="http://www.w3.org/1999/xlink" xml:space="preserve" overflow="hidden"><g transform="translate(-1188 -152)"><g><g><g><g><path d="M47.142 38.4917 47.142 32.6068C47.1405 31.3631 46.1324 30.3553 44.8886 30.3542L41.9753 30.3542 41.9753 27.125 34.6554 27.125 34.6554 25.1875 36.5574 25.1875C38.4788 25.1857 40.036 23.6285 40.0378 21.7071L40.0378 14.4596C40.036 12.5381 38.4788 10.981 36.5574 10.9792L31.642 10.9792 31.642 8.94996C33.0234 8.59326 33.8541 7.18425 33.4974 5.80282 33.1407 4.42139 31.7317 3.59067 30.3503 3.94735 28.9689 4.30404 28.1381 5.71306 28.4948 7.09448 28.7298 8.00446 29.4403 8.715 30.3503 8.94996L30.3503 10.9792 25.4342 10.9792C23.513 10.9813 21.9563 12.5384 21.9545 14.4596L21.9545 21.7071C21.9563 23.6283 23.513 25.1854 25.4342 25.1875L27.5512 25.1875 27.5512 27.125 20.017 27.125 20.017 30.9955 15.9185 30.9955C15.3881 30.9952 14.9582 30.5655 14.9575 30.0351L14.9575 24.1496C16.8863 23.7919 18.16 21.9382 17.8022 20.0093 17.6843 19.374 17.3955 18.783 16.9667 18.2997L16.0018 19.1586C16.8307 20.0922 16.7458 21.5208 15.8123 22.3497 14.8788 23.1786 13.4501 23.0937 12.6212 22.1602 11.8656 21.3092 11.8605 20.0292 12.6093 19.1722L11.6366 18.3216C10.3468 19.7998 10.4995 22.0436 11.9777 23.3334 12.4572 23.7518 13.0401 24.0337 13.6658 24.1496L13.6658 30.0351C13.6673 31.2785 14.6751 32.286 15.9185 32.2871L20.017 32.2871 20.017 45.8703C16.9923 46.0503 14.6862 48.6482 14.8662 51.6729 15.0386 54.5701 17.4376 56.8318 20.3399 56.8333L41.6524 56.8333C44.6824 56.8317 47.1374 54.3741 47.1358 51.344 47.1342 48.4417 44.8725 46.0427 41.9753 45.8703L41.9753 31.6458 44.8886 31.6458C45.4192 31.6465 45.8492 32.0763 45.8503 32.6068L45.8503 38.4917C43.9214 38.8494 42.6478 40.7031 43.0055 42.632 43.1233 43.267 43.4119 43.8578 43.8405 44.341L44.8053 43.482C43.9767 42.5483 44.0618 41.1196 44.9955 40.291 45.9291 39.4623 47.3579 39.5474 48.1865 40.4811 48.942 41.3322 48.9468 42.6123 48.1979 43.4691L49.1705 44.319C50.4601 42.8406 50.307 40.5968 48.8286 39.3073 48.3495 38.8894 47.7671 38.6077 47.142 38.4917ZM29.7045 6.45833C29.7045 5.74496 30.2827 5.16667 30.9961 5.16667 31.7095 5.16667 32.2878 5.74496 32.2878 6.45833 32.2878 7.17172 31.7095 7.75 30.9961 7.75 30.2827 7.75039 29.7042 7.17237 29.7038 6.45898 29.7038 6.45879 29.7038 6.45853 29.7038 6.45833ZM21.3086 38.1494 26.5883 38.1494 28.6924 33.677 30.6693 41.2513 33.3373 35.7617 35.0164 39.7465 36.3184 38.4155C36.4908 38.2574 36.7127 38.164 36.9462 38.1513L40.6817 38.1513 40.6817 45.8542 21.3067 45.8542ZM25.4342 23.8958C24.2262 23.894 23.2475 22.9151 23.2461 21.7071L23.2461 14.4596C23.2475 13.2516 24.2262 12.2726 25.4342 12.2708L36.5574 12.2708C37.7655 12.2726 38.7443 13.2515 38.7461 14.4596L38.7461 21.7071C38.7443 22.9152 37.7655 23.894 36.5574 23.8958L25.4342 23.8958ZM28.8429 25.1875 33.3638 25.1875 33.3638 27.125 28.8429 27.125ZM27.5512 28.4167 40.6836 28.4167 40.6836 36.8577 36.9481 36.8577C36.3943 36.8691 35.8635 37.0812 35.4543 37.4545L33.4199 32.6327 31.0362 37.541 29.0418 29.9021 25.7688 36.8577 21.3086 36.8577 21.3086 28.4167ZM45.8503 51.3438C45.8475 53.661 43.9696 55.5388 41.6524 55.5417L20.3399 55.5417C18.0214 55.5417 16.142 53.6622 16.142 51.3438 16.142 49.0253 18.0214 47.1458 20.3399 47.1458L41.6524 47.1458C43.9696 47.1487 45.8475 49.0265 45.8503 51.3438Z" stroke="#ED7D31" stroke-width="0.645833" stroke-linecap="butt" stroke-linejoin="miter" stroke-miterlimit="4" stroke-opacity="1" fill="#ED7D31" fill-rule="nonzero" fill-opacity="1" transform="matrix(1.01613 0 0 1 1189 152)"/><path d="M37.0017 18.0833C37.0017 16.5496 35.7584 15.3062 34.2246 15.3062 32.6909 15.3062 31.4476 16.5496 31.4476 18.0833 31.4476 19.6171 32.6909 20.8604 34.2246 20.8604 35.7584 20.8604 37.0017 19.6171 37.0017 18.0833ZM34.2246 20.0208C33.1546 20.0208 32.2871 19.1534 32.2871 18.0833 32.2871 17.0133 33.1546 16.1458 34.2246 16.1458 35.2947 16.1458 36.1621 17.0133 36.1621 18.0833 36.1621 19.1534 35.2947 20.0208 34.2246 20.0208Z" stroke="#ED7D31" stroke-width="0.645833" stroke-linecap="butt" stroke-linejoin="miter" stroke-miterlimit="4" stroke-opacity="1" fill="#ED7D31" fill-rule="nonzero" fill-opacity="1" transform="matrix(1.01613 0 0 1 1189 152)"/><path d="M35.1934 18.0833C35.1934 18.6184 34.7597 19.0521 34.2246 19.0521 33.6896 19.0521 33.2559 18.6184 33.2559 18.0833 33.2559 17.5483 33.6896 17.1146 34.2246 17.1146 34.7597 17.1146 35.1934 17.5483 35.1934 18.0833Z" stroke="#ED7D31" stroke-width="0.645833" stroke-linecap="butt" stroke-linejoin="miter" stroke-miterlimit="4" stroke-opacity="1" fill="#ED7D31" fill-rule="nonzero" fill-opacity="1" transform="matrix(1.01613 0 0 1 1189 152)"/><path d="M27.7663 15.3062C26.2326 15.3062 24.9892 16.5496 24.9892 18.0833 24.9892 19.6171 26.2326 20.8604 27.7663 20.8604 29.3 20.8604 30.5434 19.6171 30.5434 18.0833 30.5434 16.5496 29.3 15.3062 27.7663 15.3062ZM27.7663 20.0208C26.6962 20.0208 25.8288 19.1534 25.8288 18.0833 25.8288 17.0133 26.6962 16.1458 27.7663 16.1458 28.8364 16.1458 29.7038 17.0133 29.7038 18.0833 29.7038 19.1534 28.8364 20.0208 27.7663 20.0208Z" stroke="#ED7D31" stroke-width="0.645833" stroke-linecap="butt" stroke-linejoin="miter" stroke-miterlimit="4" stroke-opacity="1" fill="#ED7D31" fill-rule="nonzero" fill-opacity="1" transform="matrix(1.01613 0 0 1 1189 152)"/><path d="M28.7351 18.0833C28.7351 18.6184 28.3013 19.0521 27.7663 19.0521 27.2313 19.0521 26.7976 18.6184 26.7976 18.0833 26.7976 17.5483 27.2313 17.1146 27.7663 17.1146 28.3013 17.1146 28.7351 17.5483 28.7351 18.0833Z" stroke="#ED7D31" stroke-width="0.645833" stroke-linecap="butt" stroke-linejoin="miter" stroke-miterlimit="4" stroke-opacity="1" fill="#ED7D31" fill-rule="nonzero" fill-opacity="1" transform="matrix(1.01613 0 0 1 1189 152)"/><path d="M32.2878 51.3438C32.2878 52.0571 31.7095 52.6354 30.9961 52.6354 30.2828 52.6354 29.7045 52.0571 29.7045 51.3438 29.7045 50.6304 30.2828 50.0521 30.9961 50.0521 31.7095 50.0521 32.2878 50.6304 32.2878 51.3438Z" stroke="#ED7D31" stroke-width="0.645833" stroke-linecap="butt" stroke-linejoin="miter" stroke-miterlimit="4" stroke-opacity="1" fill="#ED7D31" fill-rule="nonzero" fill-opacity="1" transform="matrix(1.01613 0 0 1 1189 152)"/><path d="M22.9232 51.3438C22.9232 52.0571 22.3449 52.6354 21.6315 52.6354 20.9182 52.6354 20.3399 52.0571 20.3399 51.3438 20.3399 50.6304 20.9182 50.0521 21.6315 50.0521 22.3449 50.0521 22.9232 50.6304 22.9232 51.3438Z" stroke="#ED7D31" stroke-width="0.645833" stroke-linecap="butt" stroke-linejoin="miter" stroke-miterlimit="4" stroke-opacity="1" fill="#ED7D31" fill-rule="nonzero" fill-opacity="1" transform="matrix(1.01613 0 0 1 1189 152)"/><path d="M41.6524 51.3438C41.6524 52.0571 41.0741 52.6354 40.3607 52.6354 39.6473 52.6354 39.069 52.0571 39.069 51.3438 39.069 50.6304 39.6473 50.0521 40.3607 50.0521 41.0741 50.0521 41.6524 50.6304 41.6524 51.3438Z" stroke="#ED7D31" stroke-width="0.645833" stroke-linecap="butt" stroke-linejoin="miter" stroke-miterlimit="4" stroke-opacity="1" fill="#ED7D31" fill-rule="nonzero" fill-opacity="1" transform="matrix(1.01613 0 0 1 1189 152)"/></g></g></g></g></g></svg>