<svg width="32" height="32" xmlns="http://www.w3.org/2000/svg" xmlns:xlink="http://www.w3.org/1999/xlink" xml:space="preserve" overflow="hidden"><g transform="translate(-638 -370)"><g><g><g><g><path d="M662.571 390.246 662.571 387.303C662.57 386.682 662.066 386.178 661.444 386.177L659.988 386.177 659.988 384.562 656.328 384.562 656.328 383.594 657.279 383.594C658.239 383.593 659.018 382.814 659.019 381.854L659.019 378.23C659.018 377.269 658.239 376.49 657.279 376.49L654.821 376.49 654.821 375.475C655.512 375.297 655.927 374.592 655.749 373.901 655.57 373.211 654.866 372.795 654.175 372.974 653.484 373.152 653.069 373.857 653.247 374.547 653.365 375.002 653.72 375.358 654.175 375.475L654.175 376.49 651.717 376.49C650.757 376.491 649.978 377.269 649.977 378.23L649.977 381.854C649.978 382.814 650.757 383.593 651.717 383.594L652.776 383.594 652.776 384.562 649.008 384.562 649.008 386.498 646.959 386.498C646.694 386.498 646.479 386.283 646.479 386.018L646.479 383.075C647.443 382.896 648.08 381.969 647.901 381.005 647.842 380.687 647.698 380.391 647.483 380.15L647.001 380.579C647.415 381.046 647.373 381.76 646.906 382.175 646.439 382.589 645.725 382.547 645.311 382.08 644.933 381.655 644.93 381.015 645.305 380.586L644.818 380.161C644.173 380.9 644.25 382.022 644.989 382.667 645.229 382.876 645.52 383.017 645.833 383.075L645.833 386.018C645.834 386.639 646.338 387.143 646.959 387.144L649.008 387.144 649.008 393.935C647.496 394.025 646.343 395.324 646.433 396.836 646.519 398.285 647.719 399.416 649.17 399.417L659.826 399.417C661.341 399.416 662.569 398.187 662.568 396.672 662.567 395.221 661.436 394.021 659.988 393.935L659.988 386.823 661.444 386.823C661.71 386.823 661.925 387.038 661.925 387.303L661.925 390.246C660.961 390.425 660.324 391.352 660.503 392.316 660.562 392.633 660.706 392.929 660.92 393.171L661.403 392.741C660.988 392.274 661.031 391.56 661.498 391.145 661.965 390.731 662.679 390.774 663.093 391.241 663.471 391.666 663.473 392.306 663.099 392.735L663.585 393.16C664.23 392.42 664.154 391.298 663.414 390.654 663.175 390.445 662.884 390.304 662.571 390.246ZM653.852 374.229C653.852 373.872 654.141 373.583 654.498 373.583 654.855 373.583 655.144 373.872 655.144 374.229 655.144 374.586 654.855 374.875 654.498 374.875 654.141 374.875 653.852 374.586 653.852 374.229 653.852 374.229 653.852 374.229 653.852 374.229ZM649.654 390.075 652.294 390.075 653.346 387.839 654.335 391.626 655.669 388.881 656.508 390.873 657.159 390.208C657.245 390.129 657.356 390.082 657.473 390.076L659.341 390.076 659.341 393.927 649.653 393.927ZM651.717 382.948C651.113 382.947 650.624 382.458 650.623 381.854L650.623 378.23C650.624 377.626 651.113 377.136 651.717 377.135L657.279 377.135C657.883 377.136 658.372 377.626 658.373 378.23L658.373 381.854C658.372 382.458 657.883 382.947 657.279 382.948L651.717 382.948ZM653.421 383.594 655.682 383.594 655.682 384.562 653.421 384.562ZM652.776 385.208 659.342 385.208 659.342 389.429 657.474 389.429C657.197 389.435 656.932 389.541 656.727 389.727L655.71 387.316 654.518 389.771 653.521 385.951 651.884 389.429 649.654 389.429 649.654 385.208ZM661.925 396.672C661.924 397.831 660.985 398.769 659.826 398.771L649.17 398.771C648.011 398.771 647.071 397.831 647.071 396.672 647.071 395.513 648.011 394.573 649.17 394.573L659.826 394.573C660.985 394.574 661.924 395.513 661.925 396.672Z" stroke="#00B050" stroke-width="0.322907" stroke-linecap="butt" stroke-linejoin="miter" stroke-miterlimit="4" stroke-opacity="1" fill="#00B050" fill-rule="nonzero" fill-opacity="1"/><path d="M657.501 380.042C657.501 379.275 656.879 378.653 656.112 378.653 655.345 378.653 654.724 379.275 654.724 380.042 654.724 380.809 655.345 381.43 656.112 381.43 656.879 381.43 657.501 380.809 657.501 380.042ZM656.112 381.01C655.577 381.01 655.144 380.577 655.144 380.042 655.144 379.507 655.577 379.073 656.112 379.073 656.647 379.073 657.081 379.507 657.081 380.042 657.081 380.577 656.647 381.01 656.112 381.01Z" stroke="#00B050" stroke-width="0.322907" stroke-linecap="butt" stroke-linejoin="miter" stroke-miterlimit="4" stroke-opacity="1" fill="#00B050" fill-rule="nonzero" fill-opacity="1"/><path d="M656.597 380.042C656.597 380.309 656.38 380.526 656.112 380.526 655.845 380.526 655.628 380.309 655.628 380.042 655.628 379.774 655.845 379.557 656.112 379.557 656.38 379.557 656.597 379.774 656.597 380.042Z" stroke="#00B050" stroke-width="0.322907" stroke-linecap="butt" stroke-linejoin="miter" stroke-miterlimit="4" stroke-opacity="1" fill="#00B050" fill-rule="nonzero" fill-opacity="1"/><path d="M652.883 378.653C652.116 378.653 651.495 379.275 651.495 380.042 651.495 380.809 652.116 381.43 652.883 381.43 653.65 381.43 654.272 380.809 654.272 380.042 654.272 379.275 653.65 378.653 652.883 378.653ZM652.883 381.01C652.348 381.01 651.914 380.577 651.914 380.042 651.914 379.507 652.348 379.073 652.883 379.073 653.418 379.073 653.852 379.507 653.852 380.042 653.852 380.577 653.418 381.01 652.883 381.01Z" stroke="#00B050" stroke-width="0.322907" stroke-linecap="butt" stroke-linejoin="miter" stroke-miterlimit="4" stroke-opacity="1" fill="#00B050" fill-rule="nonzero" fill-opacity="1"/><path d="M653.368 380.042C653.368 380.309 653.151 380.526 652.883 380.526 652.616 380.526 652.399 380.309 652.399 380.042 652.399 379.774 652.616 379.557 652.883 379.557 653.151 379.557 653.368 379.774 653.368 380.042Z" stroke="#00B050" stroke-width="0.322907" stroke-linecap="butt" stroke-linejoin="miter" stroke-miterlimit="4" stroke-opacity="1" fill="#00B050" fill-rule="nonzero" fill-opacity="1"/><path d="M655.144 396.672C655.144 397.029 654.855 397.318 654.498 397.318 654.141 397.318 653.852 397.029 653.852 396.672 653.852 396.315 654.141 396.026 654.498 396.026 654.855 396.026 655.144 396.315 655.144 396.672Z" stroke="#00B050" stroke-width="0.322907" stroke-linecap="butt" stroke-linejoin="miter" stroke-miterlimit="4" stroke-opacity="1" fill="#00B050" fill-rule="nonzero" fill-opacity="1"/><path d="M650.462 396.672C650.462 397.029 650.172 397.318 649.816 397.318 649.459 397.318 649.17 397.029 649.17 396.672 649.17 396.315 649.459 396.026 649.816 396.026 650.172 396.026 650.462 396.315 650.462 396.672Z" stroke="#00B050" stroke-width="0.322907" stroke-linecap="butt" stroke-linejoin="miter" stroke-miterlimit="4" stroke-opacity="1" fill="#00B050" fill-rule="nonzero" fill-opacity="1"/><path d="M659.826 396.672C659.826 397.029 659.537 397.318 659.18 397.318 658.824 397.318 658.535 397.029 658.535 396.672 658.535 396.315 658.824 396.026 659.18 396.026 659.537 396.026 659.826 396.315 659.826 396.672Z" stroke="#00B050" stroke-width="0.322907" stroke-linecap="butt" stroke-linejoin="miter" stroke-miterlimit="4" stroke-opacity="1" fill="#00B050" fill-rule="nonzero" fill-opacity="1"/></g></g></g></g></g></svg>