<svg width="33" height="34" xmlns="http://www.w3.org/2000/svg" xmlns:xlink="http://www.w3.org/1999/xlink" xml:space="preserve" overflow="hidden"><g transform="translate(-81 -370)"><g><g><g><g><path d="M106.331 390.867 106.331 387.829C106.331 387.187 105.81 386.667 105.168 386.667L103.665 386.667 103.665 385 99.8867 385 99.8867 384 100.868 384C101.86 383.999 102.664 383.195 102.665 382.204L102.665 378.463C102.664 377.471 101.86 376.668 100.868 376.667L98.3313 376.667 98.3313 375.619C99.0443 375.435 99.4731 374.708 99.289 373.995 99.1049 373.282 98.3777 372.853 97.6647 373.037 96.9517 373.221 96.5229 373.949 96.707 374.662 96.8283 375.131 97.195 375.498 97.6647 375.619L97.6647 376.667 95.1273 376.667C94.1358 376.668 93.3323 377.471 93.3313 378.463L93.3313 382.204C93.3323 383.195 94.1358 383.999 95.1273 384L96.22 384 96.22 385 92.3313 385 92.3313 386.998 90.216 386.998C89.9423 386.997 89.7204 386.776 89.72 386.502L89.72 383.464C90.7155 383.28 91.3729 382.323 91.1882 381.327 91.1274 381 90.9783 380.694 90.757 380.445L90.259 380.888C90.6868 381.37 90.643 382.108 90.1612 382.535 89.6794 382.963 88.942 382.919 88.5142 382.438 88.1242 381.998 88.1216 381.338 88.508 380.895L88.006 380.456C87.3403 381.219 87.4191 382.377 88.182 383.043 88.4295 383.259 88.7304 383.405 89.0533 383.464L89.0533 386.502C89.0541 387.144 89.5742 387.664 90.216 387.664L92.3313 387.664 92.3313 394.675C90.7702 394.768 89.58 396.109 89.6729 397.67 89.7618 399.165 91 400.333 92.498 400.333L103.498 400.333C105.062 400.332 106.329 399.064 106.328 397.5 106.327 396.002 105.16 394.764 103.665 394.675L103.665 387.333 105.168 387.333C105.442 387.334 105.664 387.556 105.665 387.829L105.665 390.867C104.669 391.051 104.012 392.008 104.196 393.004 104.257 393.331 104.406 393.636 104.627 393.886L105.125 393.442C104.698 392.96 104.742 392.223 105.223 391.795 105.705 391.368 106.443 391.412 106.87 391.893 107.26 392.333 107.263 392.993 106.876 393.436L107.378 393.874C108.044 393.111 107.965 391.953 107.202 391.288 106.955 391.072 106.654 390.927 106.331 390.867ZM97.3313 374.333C97.3313 373.965 97.6298 373.667 97.998 373.667 98.3662 373.667 98.6647 373.965 98.6647 374.333 98.6647 374.702 98.3662 375 97.998 375 97.6298 375 97.3312 374.702 97.331 374.334 97.331 374.334 97.331 374.333 97.331 374.333ZM92.998 390.69 95.723 390.69 96.809 388.382 97.8293 392.291 99.2063 389.458 100.073 391.514 100.745 390.827C100.834 390.746 100.948 390.698 101.069 390.691L102.997 390.691 102.997 394.667 92.997 394.667ZM95.1273 383.333C94.5039 383.332 93.9987 382.827 93.998 382.204L93.998 378.463C93.9987 377.84 94.5039 377.334 95.1273 377.333L100.868 377.333C101.492 377.334 101.997 377.839 101.998 378.463L101.998 382.204C101.997 382.827 101.492 383.332 100.868 383.333L95.1273 383.333ZM96.8867 384 99.22 384 99.22 385 96.8867 385ZM96.22 385.667 102.998 385.667 102.998 390.023 101.07 390.023C100.784 390.029 100.51 390.139 100.299 390.331L99.249 387.843 98.0187 390.376 96.9893 386.433 95.3 390.023 92.998 390.023 92.998 385.667ZM105.665 397.5C105.663 398.696 104.694 399.665 103.498 399.667L92.498 399.667C91.3014 399.667 90.3313 398.697 90.3313 397.5 90.3313 396.303 91.3014 395.333 92.498 395.333L103.498 395.333C104.694 395.335 105.663 396.304 105.665 397.5Z" stroke="#ED7D31" stroke-width="0.333333" stroke-linecap="butt" stroke-linejoin="miter" stroke-miterlimit="4" stroke-opacity="1" fill="#ED7D31" fill-rule="nonzero" fill-opacity="1"/><path d="M101.098 380.333C101.098 379.542 100.456 378.9 99.6643 378.9 98.8727 378.9 98.231 379.542 98.231 380.333 98.231 381.125 98.8727 381.767 99.6643 381.767 100.456 381.767 101.098 381.125 101.098 380.333ZM99.6643 381.333C99.112 381.333 98.6643 380.886 98.6643 380.333 98.6643 379.781 99.112 379.333 99.6643 379.333 100.217 379.333 100.664 379.781 100.664 380.333 100.664 380.886 100.217 381.333 99.6643 381.333Z" stroke="#ED7D31" stroke-width="0.333333" stroke-linecap="butt" stroke-linejoin="miter" stroke-miterlimit="4" stroke-opacity="1" fill="#ED7D31" fill-rule="nonzero" fill-opacity="1"/><path d="M100.164 380.333C100.164 380.609 99.9405 380.833 99.6643 380.833 99.3882 380.833 99.1643 380.609 99.1643 380.333 99.1643 380.057 99.3882 379.833 99.6643 379.833 99.9405 379.833 100.164 380.057 100.164 380.333Z" stroke="#ED7D31" stroke-width="0.333333" stroke-linecap="butt" stroke-linejoin="miter" stroke-miterlimit="4" stroke-opacity="1" fill="#ED7D31" fill-rule="nonzero" fill-opacity="1"/><path d="M96.331 378.9C95.5394 378.9 94.8977 379.542 94.8977 380.333 94.8977 381.125 95.5394 381.767 96.331 381.767 97.1226 381.767 97.7643 381.125 97.7643 380.333 97.7643 379.542 97.1226 378.9 96.331 378.9ZM96.331 381.333C95.7787 381.333 95.331 380.886 95.331 380.333 95.331 379.781 95.7787 379.333 96.331 379.333 96.8833 379.333 97.331 379.781 97.331 380.333 97.331 380.886 96.8833 381.333 96.331 381.333Z" stroke="#ED7D31" stroke-width="0.333333" stroke-linecap="butt" stroke-linejoin="miter" stroke-miterlimit="4" stroke-opacity="1" fill="#ED7D31" fill-rule="nonzero" fill-opacity="1"/><path d="M96.831 380.333C96.831 380.609 96.6071 380.833 96.331 380.833 96.0549 380.833 95.831 380.609 95.831 380.333 95.831 380.057 96.0549 379.833 96.331 379.833 96.6071 379.833 96.831 380.057 96.831 380.333Z" stroke="#ED7D31" stroke-width="0.333333" stroke-linecap="butt" stroke-linejoin="miter" stroke-miterlimit="4" stroke-opacity="1" fill="#ED7D31" fill-rule="nonzero" fill-opacity="1"/><path d="M98.6647 397.5C98.6647 397.868 98.3662 398.167 97.998 398.167 97.6298 398.167 97.3313 397.868 97.3313 397.5 97.3313 397.132 97.6298 396.833 97.998 396.833 98.3662 396.833 98.6647 397.132 98.6647 397.5Z" stroke="#ED7D31" stroke-width="0.333333" stroke-linecap="butt" stroke-linejoin="miter" stroke-miterlimit="4" stroke-opacity="1" fill="#ED7D31" fill-rule="nonzero" fill-opacity="1"/><path d="M93.8313 397.5C93.8313 397.868 93.5329 398.167 93.1647 398.167 92.7965 398.167 92.498 397.868 92.498 397.5 92.498 397.132 92.7965 396.833 93.1647 396.833 93.5329 396.833 93.8313 397.132 93.8313 397.5Z" stroke="#ED7D31" stroke-width="0.333333" stroke-linecap="butt" stroke-linejoin="miter" stroke-miterlimit="4" stroke-opacity="1" fill="#ED7D31" fill-rule="nonzero" fill-opacity="1"/><path d="M103.498 397.5C103.498 397.868 103.2 398.167 102.831 398.167 102.463 398.167 102.165 397.868 102.165 397.5 102.165 397.132 102.463 396.833 102.831 396.833 103.2 396.833 103.498 397.132 103.498 397.5Z" stroke="#ED7D31" stroke-width="0.333333" stroke-linecap="butt" stroke-linejoin="miter" stroke-miterlimit="4" stroke-opacity="1" fill="#ED7D31" fill-rule="nonzero" fill-opacity="1"/></g></g></g></g></g></svg>