<svg width="34" height="34" xmlns="http://www.w3.org/2000/svg" xmlns:xlink="http://www.w3.org/1999/xlink" xml:space="preserve" overflow="hidden"><g transform="translate(-638 -14)"><g><g><g><g><path d="M664.092 35.4875 664.092 32.3553C664.091 31.6933 663.554 31.1568 662.892 31.1562L661.342 31.1562 661.342 29.4375 657.446 29.4375 657.446 28.4062 658.458 28.4062C659.481 28.4053 660.309 27.5765 660.31 26.5538L660.31 22.6962C660.309 21.6735 659.481 20.8447 658.458 20.8438L655.842 20.8438 655.842 19.7637C656.577 19.5738 657.019 18.8239 656.829 18.0886 656.639 17.3533 655.889 16.9112 655.154 17.101 654.419 17.2909 653.977 18.0408 654.167 18.7761 654.292 19.2604 654.67 19.6386 655.154 19.7637L655.154 20.8438 652.538 20.8438C651.515 20.8449 650.686 21.6737 650.685 22.6962L650.685 26.5538C650.686 27.5763 651.515 28.4051 652.538 28.4062L653.664 28.4062 653.664 29.4375 649.654 29.4375 649.654 31.4976 647.473 31.4976C647.19 31.4974 646.962 31.2687 646.961 30.9864L646.961 27.8538C647.988 27.6634 648.666 26.6768 648.475 25.6501 648.413 25.312 648.259 24.9974 648.031 24.7402L647.517 25.1973C647.958 25.6942 647.913 26.4546 647.416 26.8958 646.919 27.337 646.159 27.2918 645.718 26.795 645.316 26.342 645.313 25.6607 645.711 25.2046L645.194 24.7518C644.507 25.5386 644.588 26.7329 645.375 27.4194 645.63 27.6421 645.941 27.7921 646.274 27.8538L646.274 30.9864C646.275 31.6483 646.811 32.1845 647.473 32.1851L649.654 32.1851 649.654 39.4148C648.044 39.5106 646.817 40.8934 646.913 42.5033 647.004 44.0454 648.281 45.2492 649.826 45.25L661.17 45.25C662.783 45.2491 664.089 43.941 664.088 42.3283 664.088 40.7835 662.884 39.5066 661.342 39.4148L661.342 31.8438 662.892 31.8438C663.175 31.8441 663.404 32.0729 663.404 32.3553L663.404 35.4875C662.378 35.6779 661.7 36.6645 661.89 37.6912 661.953 38.0292 662.106 38.3437 662.334 38.6008L662.848 38.1437C662.407 37.6467 662.452 36.8863 662.949 36.4452 663.446 36.0041 664.207 36.0494 664.648 36.5464 665.05 36.9994 665.052 37.6807 664.654 38.1368L665.171 38.5892C665.858 37.8023 665.776 36.608 664.989 35.9216 664.734 35.6992 664.424 35.5493 664.092 35.4875ZM654.81 18.4375C654.81 18.0578 655.118 17.75 655.498 17.75 655.878 17.75 656.185 18.0578 656.185 18.4375 656.185 18.8172 655.878 19.125 655.498 19.125 655.118 19.1252 654.81 18.8176 654.81 18.4378 654.81 18.4377 654.81 18.4376 654.81 18.4375ZM650.342 35.3053 653.152 35.3053 654.272 32.9248 655.324 36.9563 656.744 34.0345 657.638 36.1554 658.331 35.4469C658.423 35.3628 658.541 35.3131 658.665 35.3063L660.653 35.3063 660.653 39.4062 650.341 39.4062ZM652.538 27.7188C651.895 27.7178 651.374 27.1967 651.373 26.5538L651.373 22.6962C651.374 22.0533 651.895 21.5322 652.538 21.5312L658.458 21.5312C659.101 21.5322 659.622 22.0532 659.623 22.6962L659.623 26.5538C659.622 27.1968 659.101 27.7178 658.458 27.7188L652.538 27.7188ZM654.352 28.4062 656.758 28.4062 656.758 29.4375 654.352 29.4375ZM653.664 30.125 660.654 30.125 660.654 34.6178 658.666 34.6178C658.371 34.6239 658.089 34.7368 657.871 34.9354L656.788 32.369 655.519 34.9815 654.458 30.9156 652.716 34.6178 650.342 34.6178 650.342 30.125ZM663.404 42.3281C663.403 43.5615 662.403 44.561 661.17 44.5625L649.826 44.5625C648.592 44.5625 647.592 43.5622 647.592 42.3281 647.592 41.0941 648.592 40.0938 649.826 40.0938L661.17 40.0938C662.403 40.0953 663.403 41.0947 663.404 42.3281Z" stroke="#FF0000" stroke-width="0.34375" stroke-linecap="butt" stroke-linejoin="miter" stroke-miterlimit="4" stroke-opacity="1" fill="#FF0000" fill-rule="nonzero" fill-opacity="1"/><path d="M658.694 24.625C658.694 23.8087 658.033 23.1469 657.216 23.1469 656.4 23.1469 655.738 23.8087 655.738 24.625 655.738 25.4413 656.4 26.1031 657.216 26.1031 658.033 26.1031 658.694 25.4413 658.694 24.625ZM657.216 25.6562C656.647 25.6562 656.185 25.1946 656.185 24.625 656.185 24.0554 656.647 23.5938 657.216 23.5938 657.786 23.5938 658.248 24.0554 658.248 24.625 658.248 25.1946 657.786 25.6562 657.216 25.6562Z" stroke="#FF0000" stroke-width="0.34375" stroke-linecap="butt" stroke-linejoin="miter" stroke-miterlimit="4" stroke-opacity="1" fill="#FF0000" fill-rule="nonzero" fill-opacity="1"/><path d="M657.732 24.625C657.732 24.9098 657.501 25.1406 657.216 25.1406 656.932 25.1406 656.701 24.9098 656.701 24.625 656.701 24.3402 656.932 24.1094 657.216 24.1094 657.501 24.1094 657.732 24.3402 657.732 24.625Z" stroke="#FF0000" stroke-width="0.34375" stroke-linecap="butt" stroke-linejoin="miter" stroke-miterlimit="4" stroke-opacity="1" fill="#FF0000" fill-rule="nonzero" fill-opacity="1"/><path d="M653.779 23.1469C652.963 23.1469 652.301 23.8087 652.301 24.625 652.301 25.4413 652.963 26.1031 653.779 26.1031 654.595 26.1031 655.257 25.4413 655.257 24.625 655.257 23.8087 654.595 23.1469 653.779 23.1469ZM653.779 25.6562C653.209 25.6562 652.748 25.1946 652.748 24.625 652.748 24.0554 653.209 23.5938 653.779 23.5938 654.348 23.5938 654.81 24.0554 654.81 24.625 654.81 25.1946 654.348 25.6562 653.779 25.6562Z" stroke="#FF0000" stroke-width="0.34375" stroke-linecap="butt" stroke-linejoin="miter" stroke-miterlimit="4" stroke-opacity="1" fill="#FF0000" fill-rule="nonzero" fill-opacity="1"/><path d="M654.294 24.625C654.294 24.9098 654.064 25.1406 653.779 25.1406 653.494 25.1406 653.263 24.9098 653.263 24.625 653.263 24.3402 653.494 24.1094 653.779 24.1094 654.064 24.1094 654.294 24.3402 654.294 24.625Z" stroke="#FF0000" stroke-width="0.34375" stroke-linecap="butt" stroke-linejoin="miter" stroke-miterlimit="4" stroke-opacity="1" fill="#FF0000" fill-rule="nonzero" fill-opacity="1"/><path d="M656.185 42.3281C656.185 42.7078 655.878 43.0156 655.498 43.0156 655.118 43.0156 654.81 42.7078 654.81 42.3281 654.81 41.9484 655.118 41.6406 655.498 41.6406 655.878 41.6406 656.185 41.9484 656.185 42.3281Z" stroke="#FF0000" stroke-width="0.34375" stroke-linecap="butt" stroke-linejoin="miter" stroke-miterlimit="4" stroke-opacity="1" fill="#FF0000" fill-rule="nonzero" fill-opacity="1"/><path d="M651.201 42.3281C651.201 42.7078 650.893 43.0156 650.514 43.0156 650.134 43.0156 649.826 42.7078 649.826 42.3281 649.826 41.9484 650.134 41.6406 650.514 41.6406 650.893 41.6406 651.201 41.9484 651.201 42.3281Z" stroke="#FF0000" stroke-width="0.34375" stroke-linecap="butt" stroke-linejoin="miter" stroke-miterlimit="4" stroke-opacity="1" fill="#FF0000" fill-rule="nonzero" fill-opacity="1"/><path d="M661.17 42.3281C661.17 42.7078 660.862 43.0156 660.482 43.0156 660.103 43.0156 659.795 42.7078 659.795 42.3281 659.795 41.9484 660.103 41.6406 660.482 41.6406 660.862 41.6406 661.17 41.9484 661.17 42.3281Z" stroke="#FF0000" stroke-width="0.34375" stroke-linecap="butt" stroke-linejoin="miter" stroke-miterlimit="4" stroke-opacity="1" fill="#FF0000" fill-rule="nonzero" fill-opacity="1"/></g></g></g></g></g></svg>